<?xml version="1.0" standalone="no"?>
<!DOCTYPE svg PUBLIC "-//W3C//DTD SVG 20010904//EN"
 "http://www.w3.org/TR/2001/REC-SVG-20010904/DTD/svg10.dtd">
<svg version="1.0" xmlns="http://www.w3.org/2000/svg"
 width="720.000000pt" height="720.000000pt" viewBox="0 0 720.000000 720.000000"
 preserveAspectRatio="xMidYMid meet">
<metadata>
Created by potrace 1.14, written by Peter Selinger 2001-2017
</metadata>
<g transform="translate(0.000000,720.000000) scale(0.100000,-0.100000)"
fill="#000000" stroke="none">
<path d="M3395 6816 c-207 -78 -319 -129 -405 -186 -30 -20 -60 -39 -66 -43
-7 -4 -9 7 -5 36 3 23 5 49 5 57 -1 8 -2 21 -3 28 -3 30 -56 2 -133 -69 -121
-111 -127 -114 -233 -114 -76 0 -98 -4 -145 -26 -73 -35 -153 -115 -187 -189
-20 -42 -34 -60 -48 -61 -37 -3 -80 -1 -165 4 -58 4 -95 1 -116 -8 -55 -23
-194 -148 -458 -411 -182 -183 -184 -185 -211 -263 -29 -86 -45 -120 -70 -151
-25 -31 -157 -163 -301 -300 -198 -189 -275 -322 -338 -590 -14 -58 -28 -118
-31 -135 -2 -16 -7 -39 -9 -51 -2 -12 -7 -45 -11 -75 -4 -30 -8 -56 -10 -59
-2 -3 -6 -30 -9 -60 -3 -30 -8 -66 -11 -80 -3 -13 -7 -42 -10 -65 -3 -22 -8
-51 -10 -65 -3 -14 -7 -36 -10 -49 -2 -13 7 -45 21 -72 13 -27 25 -52 26 -56
0 -5 11 -24 23 -43 19 -31 102 -220 110 -250 0 -3 11 -34 22 -70 36 -107 59
-204 69 -286 6 -47 4 -53 -16 -64 -12 -6 -30 -10 -40 -7 -24 6 -27 -3 -25 -98
2 -123 14 -165 96 -343 16 -35 29 -65 29 -67 0 -5 40 -96 73 -165 11 -25 21
-47 22 -50 1 -3 8 -21 17 -40 40 -88 142 -330 160 -380 11 -30 23 -64 28 -75
5 -11 20 -54 34 -95 19 -58 29 -76 45 -78 38 -6 88 -68 101 -125 32 -147 99
-327 121 -327 5 0 9 -6 9 -12 1 -18 58 -77 114 -116 77 -55 136 -71 287 -75
146 -4 192 -18 254 -75 65 -60 208 -111 314 -112 53 0 151 -34 151 -52 0 -4 9
-8 19 -8 11 0 22 -4 25 -8 2 -4 40 -25 83 -46 95 -48 224 -120 280 -158 48
-32 69 -35 95 -11 17 15 18 15 19 -8 1 -13 0 -37 -1 -52 l-2 -28 54 6 c29 3
64 8 78 10 37 6 166 17 240 21 36 1 67 3 70 4 11 3 168 0 240 -4 98 -5 149
-13 238 -36 41 -10 84 -16 95 -14 111 25 205 8 325 -60 96 -54 172 -55 152 -1
-9 22 -6 27 28 44 20 10 39 19 42 19 3 1 12 3 20 5 53 17 148 34 176 32 24 -1
40 -10 56 -31 39 -50 76 -84 92 -84 12 0 16 12 17 53 1 28 1 54 1 57 0 3 8 16
18 30 16 22 27 25 92 26 40 1 76 2 80 3 4 0 5 18 3 40 -2 21 -1 50 3 64 9 32
221 258 279 299 l44 30 46 -51 c63 -69 68 -68 50 14 -5 20 -46 80 -71 104 -13
13 -22 29 -19 36 11 29 183 69 197 46 3 -5 15 -11 26 -14 16 -4 18 -2 10 13
-6 10 -10 25 -10 33 0 23 60 46 133 50 37 3 74 11 83 18 23 19 43 62 47 101 4
38 11 52 38 83 89 101 224 277 249 325 7 14 16 27 20 30 39 28 280 514 306
614 3 14 10 29 15 32 12 7 12 34 0 34 -18 0 -166 -155 -204 -213 -48 -72 -81
-96 -109 -78 -24 15 -21 18 -42 -46 -10 -29 -20 -53 -22 -53 -3 0 -3 18 0 40
2 22 2 40 0 40 -5 0 -63 -44 -120 -90 -16 -14 -45 -36 -64 -50 -18 -14 -56
-43 -84 -65 -28 -22 -61 -47 -73 -55 -12 -8 -56 -42 -99 -75 -43 -33 -90 -68
-104 -77 -39 -26 -273 -196 -287 -207 -7 -6 -16 -11 -22 -11 -5 0 -11 -4 -13
-8 -1 -5 -43 -35 -93 -68 -49 -32 -94 -62 -100 -67 -39 -29 -116 -77 -125 -77
-5 0 -10 -4 -10 -9 0 -13 -52 -32 -90 -33 -26 -1 -39 6 -60 32 l-27 33 -41
-37 c-53 -48 -87 -47 -87 2 0 34 1 34 -72 34 -35 1 -63 -16 -63 -37 0 -7 -6
-18 -13 -24 -11 -8 -17 -5 -27 14 -16 30 -30 32 -31 5 -1 -11 -3 -24 -4 -30
-1 -5 -3 -20 -4 -32 l-2 -23 -13 24 -14 25 -26 -29 c-14 -15 -26 -33 -26 -39
0 -6 -12 7 -27 29 -14 22 -38 54 -51 70 l-25 30 7 -30 c18 -68 18 -85 2 -79
-9 3 -16 11 -16 17 0 24 -12 -5 -17 -40 -2 -21 -11 -43 -20 -50 -8 -6 -32 -28
-53 -47 -31 -29 -48 -36 -96 -41 -33 -3 -75 -8 -94 -10 -19 -3 -55 -7 -80 -10
-25 -3 -78 -14 -118 -24 -66 -17 -78 -18 -130 -5 -88 22 -100 25 -174 39 -31
6 -63 12 -123 24 -22 5 -47 9 -55 9 -16 -1 -83 9 -135 19 -30 5 -68 9 -175 17
-92 7 -176 18 -235 31 -11 3 -29 7 -40 9 -66 14 -276 107 -337 150 -19 14 -19
14 2 21 24 8 60 60 60 88 0 21 -16 23 -24 2 -3 -8 -12 -15 -21 -15 -8 0 -15
-4 -15 -8 0 -5 -6 -9 -12 -9 -7 -1 -34 -4 -60 -8 l-48 -8 -77 76 c-43 42 -99
95 -124 119 -115 108 -214 201 -319 298 -183 170 -369 358 -523 530 -51 57
-103 155 -167 320 -19 47 -39 94 -46 105 -7 11 -13 25 -13 30 0 17 -34 85 -42
85 -5 0 -14 -6 -21 -13 -19 -21 -47 -8 -67 32 -30 59 -4 124 39 101 24 -13 31
-2 25 39 -26 164 -31 201 -41 286 -3 28 -10 67 -14 87 -12 55 -2 102 37 187
20 42 37 83 38 91 2 8 4 15 5 15 1 0 3 16 5 35 3 48 17 173 31 290 3 30 8 71
10 90 2 19 6 60 10 90 3 30 8 71 9 90 5 50 16 139 21 180 8 57 20 115 40 195
8 33 19 69 23 80 5 11 17 43 26 70 26 72 72 169 122 253 24 41 43 78 43 83 0
5 4 9 8 9 4 0 15 13 25 29 40 68 161 207 306 351 146 145 327 315 396 372 36
30 588 358 602 358 3 0 22 10 42 22 20 13 38 23 41 24 3 0 41 17 85 38 72 34
260 102 310 112 11 2 43 8 70 14 28 6 61 12 75 15 61 12 157 18 310 20 91 1
176 5 189 8 62 16 86 74 82 200 -1 37 -2 38 -32 33 -27 -4 -61 6 -79 24 -22
22 -94 72 -115 80 -39 15 -48 13 -200 -44z m-2529 -4161 c3 -15 9 -36 14 -46
18 -33 10 -42 -12 -13 -13 16 -31 38 -40 48 -21 23 -23 37 -6 54 16 16 37 -4
44 -43z m83 26 c12 -16 21 -31 21 -34 0 -3 9 -26 20 -51 11 -26 20 -50 20 -54
1 -4 10 -21 21 -38 26 -42 24 -46 -10 -26 -37 21 -57 54 -66 111 -4 24 -16 58
-26 75 -10 17 -19 34 -19 39 0 16 20 5 39 -22z"/>
<path d="M4481 6659 c-33 -4 -50 -13 -68 -35 -12 -16 -23 -32 -23 -36 0 -4
-15 -2 -32 3 -34 10 -175 10 -193 0 -5 -3 -17 -6 -25 -8 -23 -3 -70 -64 -71
-93 -4 -83 9 -108 97 -180 83 -68 235 -118 379 -123 32 -2 69 -18 156 -69 138
-81 423 -267 427 -279 2 -5 8 -9 13 -9 5 0 59 -36 120 -80 60 -44 114 -80 119
-80 4 0 10 -4 12 -8 2 -4 26 -23 53 -42 28 -19 52 -37 55 -40 3 -3 21 -17 40
-30 19 -13 37 -27 40 -30 3 -3 28 -20 55 -37 28 -18 59 -40 70 -50 58 -52 125
-55 208 -8 25 14 48 25 51 25 2 0 5 -34 5 -76 0 -60 8 -97 37 -182 62 -181 87
-220 187 -289 101 -70 142 -214 98 -346 -13 -37 -11 -42 24 -110 61 -117 125
-205 194 -269 47 -43 66 -68 67 -86 1 -15 2 -35 3 -44 1 -17 27 -48 40 -48 4
0 18 9 31 20 13 11 24 19 25 18 2 -2 -3 -46 -10 -98 -12 -94 -17 -306 -8 -341
9 -32 18 -21 19 24 2 46 13 168 19 196 2 10 6 42 10 72 4 30 9 57 11 60 2 3 6
19 8 35 11 60 43 181 55 209 5 11 12 28 15 38 10 31 -30 1 -64 -48 -50 -72
-60 -62 -61 58 -1 114 -3 155 -13 248 -4 35 -9 84 -11 109 -2 25 -6 59 -9 75
-3 17 -8 55 -11 85 -3 30 -8 66 -10 80 -2 14 -6 48 -10 75 -3 28 -7 60 -10 73
-2 12 -53 100 -112 194 -59 95 -112 180 -118 189 -5 9 -25 40 -43 70 -58 95
-251 404 -259 415 -4 5 -13 19 -20 30 -112 185 -196 282 -338 395 -83 66 -190
139 -204 139 -5 0 -16 6 -24 14 -25 26 -315 156 -346 156 -6 0 -19 4 -29 9 -9
6 -30 13 -47 17 -16 4 -32 8 -35 9 -59 18 -96 26 -145 31 -76 9 -336 11 -394
3z"/>
<path d="M2476 5008 c-86 -10 -173 -33 -250 -64 -66 -27 -186 -101 -186 -115
0 -5 -7 -9 -15 -9 -8 0 -15 -3 -15 -7 0 -5 -17 -25 -37 -47 -40 -42 -74 -90
-99 -139 -9 -17 -20 -34 -23 -37 -21 -16 -103 -267 -117 -360 -3 -19 -9 -51
-14 -70 -8 -31 -16 -92 -26 -200 -3 -28 -15 -301 -16 -345 0 -33 13 -318 17
-355 8 -83 17 -147 30 -232 11 -70 58 -244 69 -257 6 -8 10 -17 8 -20 -5 -10
29 -91 66 -161 60 -112 118 -180 207 -246 33 -24 65 -49 72 -54 7 -6 19 -10
28 -10 8 0 15 -5 15 -12 0 -6 3 -9 6 -5 4 3 21 -1 38 -10 27 -14 83 -32 151
-49 80 -19 341 -25 430 -10 58 10 90 17 110 23 11 4 27 8 35 9 24 4 144 56
160 69 8 7 20 14 27 16 22 7 119 93 154 136 68 85 110 165 165 318 9 26 8 21
37 145 25 105 41 203 54 335 8 82 7 667 -1 740 -10 81 -26 200 -32 226 -2 13
-6 35 -8 49 -13 88 -72 264 -119 355 -33 64 -107 163 -154 206 -89 80 -219
145 -343 169 -25 5 -56 12 -70 15 -43 10 -282 12 -354 3z m269 -393 c119 -23
201 -75 259 -165 26 -41 61 -130 70 -180 38 -211 50 -367 49 -675 -1 -202 -8
-373 -18 -435 -2 -14 -7 -49 -10 -79 -4 -30 -9 -63 -11 -75 -3 -12 -7 -32 -10
-46 -43 -225 -170 -355 -366 -376 -86 -9 -84 -9 -163 -1 -121 14 -221 74 -282
170 -25 40 -68 146 -78 191 -23 115 -27 138 -40 250 -24 206 -24 581 0 836 4
52 15 123 20 140 2 8 6 26 9 40 7 46 57 185 79 220 31 52 102 117 155 144 88
44 230 62 337 41z"/>
<path d="M3964 4965 c-1 -5 -2 -624 -1 -1375 l2 -1365 774 0 774 0 4 25 c8 55
9 86 2 118 -4 17 -3 34 1 37 4 3 4 21 0 40 -4 19 -5 50 -1 68 4 17 4 48 1 67
l-5 35 -557 3 -558 2 -1 33 c0 17 -1 69 -2 115 -1 45 1 82 5 82 4 0 5 6 2 14
-9 22 -10 306 -2 306 4 0 5 6 2 14 -9 24 -10 146 -1 146 4 0 5 5 2 11 -10 14
-12 309 -3 309 4 0 5 6 2 14 -9 22 -10 306 -2 306 4 0 5 6 2 14 -9 23 -11 146
-2 146 4 0 5 6 2 14 -9 22 -10 306 -2 306 4 0 5 6 2 14 -9 24 -10 146 -1 146
4 0 5 5 2 11 -9 13 -12 309 -4 309 3 0 4 10 2 23 -4 22 -4 22 -220 22 -138 0
-217 -3 -219 -10z"/>
</g>
</svg>
